# xmcd
#
# Track frame offsets: 
#        150
#        12842
#        28785
#        41255
#        54502
#        70850
#        82720
#        98057
#        112527
#        128692
#
# Disc length: 1906 seconds
#
# Revision: 6
# Processed by: cddbd v1.5.2PL0 Copyright (c) Steve Scherf et al.
# Submitted via: ExactAudioCopy v1.3
#
DISCID=6607700a
DTITLE=Lee Greenwood - The Best Of Lee Greenwood
DYEAR=1993
DGENRE=Country
TTITLE0=Holdin' A Good Hand
TTITLE1=Just Like Me
TTITLE2=Hopelesly Yours  -  Duet with Suzy Bogguss
TTITLE3=Between A Rock And A Heartache
TTITLE4=Heart Don't Fail Me Now  -  Duet with Rita Coolidge
TTITLE5=Before I'm Ever Over You
TTITLE6=We've Got It Made
TTITLE7=We're Both To Blame  -  Duet with Tanya Tucker
TTITLE8=If You'll Let This Fool Back In
TTITLE9=God Bless The U.S.A.
EXTD=YEAR: 1993
EXTT0=
EXTT1=
EXTT2=
EXTT3=
EXTT4=
EXTT5=
EXTT6=
EXTT7=
EXTT8=
EXTT9=
PLAYORDER=
